<svg xmlns="http://www.w3.org/2000/svg"><symbol id="cart" viewBox="0 0 22 21"><path fill="#3C3737" fill-rule="evenodd" d="M.014 8.084a.464.464 0 0 1 .45-.576h21.072c.302 0 .523.283.45.576L19.059 19.79a.928.928 0 0 1-.9.703H3.84a.928.928 0 0 1-.9-.703L.015 8.084zm11.736 3.541a.75.75 0 0 0-1.5 0v4.75a.75.75 0 0 0 1.5 0v-4.75zm4.319-.561a.75.75 0 0 1 .448.96l-1.624 4.464a.75.75 0 0 1-1.41-.513l1.624-4.463a.75.75 0 0 1 .962-.448zm-9.177.448a.75.75 0 1 0-1.41.513l1.625 4.463a.75.75 0 0 0 1.41-.513l-1.625-4.463z" clip-rule="evenodd"/><path stroke="#3C3737" stroke-linecap="round" stroke-linejoin="round" stroke-width="2" d="M17.5 8.5l-4.911-6.422a2 2 0 0 0-3.178 0L4.5 8.5"/></symbol><<symbol id="search" viewBox="0 0 16 16"><path fill="#8B8B8B" d="M15.212 14.573l-3.808-3.96A6.44 6.44 0 0 0 12.92 6.46 6.467 6.467 0 0 0 6.46 0 6.467 6.467 0 0 0 0 6.46a6.467 6.467 0 0 0 6.46 6.46 6.39 6.39 0 0 0 3.701-1.169l3.837 3.99a.838.838 0 0 0 1.191.023.844.844 0 0 0 .023-1.19zM6.46 1.685a4.78 4.78 0 0 1 4.775 4.775 4.78 4.78 0 0 1-4.775 4.775A4.78 4.78 0 0 1 1.685 6.46 4.78 4.78 0 0 1 6.46 1.685z"/></symbol></svg>