<svg xmlns="http://www.w3.org/2000/svg"><symbol id="play" viewBox="0 0 163.86 163.86"><path fill="#FDC55E" d="M34.857 3.613C20.084-4.861 8.107 2.081 8.107 19.106v125.637c0 17.042 11.977 23.975 26.75 15.509L144.67 97.275c14.778-8.477 14.778-22.211 0-30.686L34.857 3.613z" data-original="#000000"/></symbol><symbol id="cart" viewBox="0 0 512 512"><path d="M490.299 185.717H384.08L324.496 49.284c-3.315-7.591-12.157-11.06-19.749-7.743-7.592 3.315-11.059 12.158-7.743 19.75l54.34 124.427H160.656l54.34-124.427c3.315-7.592-.151-16.434-7.743-19.75-7.591-3.317-16.435.15-19.749 7.743L127.92 185.717H21.701c-13.895 0-24.207 12.579-21.167 25.82l55.935 243.63c2.221 9.674 11.015 16.55 21.167 16.55h356.728c10.152 0 18.946-6.876 21.167-16.55l55.935-243.63c3.04-13.24-7.273-25.82-21.167-25.82zm-359.557 46.004c-2.004 0-4.041-.404-5.996-1.258-7.592-3.315-11.059-12.157-7.743-19.75l11.268-25.802h32.736l-16.512 37.808c-2.461 5.639-7.971 9.002-13.753 9.002zM181 391.717c0 8.284-6.716 15-15 15s-15-6.716-15-15v-110c0-8.284 6.716-15 15-15s15 6.716 15 15zm90 0c0 8.284-6.716 15-15 15s-15-6.716-15-15v-110c0-8.284 6.716-15 15-15s15 6.716 15 15zm90 0c0 8.284-6.716 15-15 15s-15-6.716-15-15v-110c0-8.284 6.716-15 15-15s15 6.716 15 15zm26.253-161.254a14.938 14.938 0 0 1-5.995 1.258c-5.782 0-11.292-3.362-13.754-9.001l-16.512-37.808h32.736l11.268 25.802c3.316 7.592-.151 16.434-7.743 19.749z" data-original="#000000"/></symbol><symbol id="search" viewBox="0 0 16 16"><path fill="#8B8B8B" d="M15.212 14.573l-3.808-3.96A6.44 6.44 0 0 0 12.92 6.46 6.467 6.467 0 0 0 6.46 0 6.467 6.467 0 0 0 0 6.46a6.467 6.467 0 0 0 6.46 6.46 6.39 6.39 0 0 0 3.701-1.169l3.837 3.99a.838.838 0 0 0 1.191.023.844.844 0 0 0 .023-1.19zM6.46 1.685a4.78 4.78 0 0 1 4.775 4.775 4.78 4.78 0 0 1-4.775 4.775A4.78 4.78 0 0 1 1.685 6.46 4.78 4.78 0 0 1 6.46 1.685z"/></symbol></svg>