<svg width="280" height="194" viewBox="0 0 280 194" fill="none" xmlns="http://www.w3.org/2000/svg">
<g filter="url(#filter0_d_1_387)">
<rect x="60" y="20" width="160" height="74" rx="12" fill="white"/>
</g>
<path d="M137.008 40.832C138.181 40.832 139.211 41.0613 140.096 41.52C140.992 41.9787 141.68 42.6347 142.16 43.488C142.651 44.3307 142.896 45.312 142.896 46.432C142.896 47.552 142.651 48.5333 142.16 49.376C141.68 50.208 140.992 50.8533 140.096 51.312C139.211 51.7707 138.181 52 137.008 52H133.104V40.832H137.008ZM136.928 50.096C138.101 50.096 139.008 49.776 139.648 49.136C140.288 48.496 140.608 47.5947 140.608 46.432C140.608 45.2693 140.288 44.3627 139.648 43.712C139.008 43.0507 138.101 42.72 136.928 42.72H135.344V50.096H136.928ZM152.813 47.376C152.813 47.696 152.791 47.984 152.749 48.24H146.269C146.322 48.88 146.546 49.3813 146.941 49.744C147.335 50.1067 147.821 50.288 148.397 50.288C149.229 50.288 149.821 49.9307 150.173 49.216H152.589C152.333 50.0693 151.842 50.7733 151.117 51.328C150.391 51.872 149.501 52.144 148.445 52.144C147.591 52.144 146.823 51.9573 146.141 51.584C145.469 51.2 144.941 50.6613 144.557 49.968C144.183 49.2747 143.997 48.4747 143.997 47.568C143.997 46.6507 144.183 45.8453 144.557 45.152C144.93 44.4587 145.453 43.9253 146.125 43.552C146.797 43.1787 147.57 42.992 148.445 42.992C149.287 42.992 150.039 43.1733 150.701 43.536C151.373 43.8987 151.89 44.416 152.253 45.088C152.626 45.7493 152.813 46.512 152.813 47.376ZM150.493 46.736C150.482 46.16 150.274 45.7013 149.869 45.36C149.463 45.008 148.967 44.832 148.381 44.832C147.826 44.832 147.357 45.0027 146.973 45.344C146.599 45.6747 146.37 46.1387 146.285 46.736H150.493ZM156.688 40.16V52H154.448V40.16H156.688ZM160.037 42.08C159.642 42.08 159.312 41.9573 159.045 41.712C158.789 41.456 158.661 41.1413 158.661 40.768C158.661 40.3947 158.789 40.0853 159.045 39.84C159.312 39.584 159.642 39.456 160.037 39.456C160.432 39.456 160.757 39.584 161.013 39.84C161.28 40.0853 161.413 40.3947 161.413 40.768C161.413 41.1413 161.28 41.456 161.013 41.712C160.757 41.9573 160.432 42.08 160.037 42.08ZM161.141 43.136V52H158.901V43.136H161.141ZM167.05 49.936L169.29 43.136H171.674L168.394 52H165.674L162.41 43.136H164.81L167.05 49.936ZM172.356 47.536C172.356 46.64 172.532 45.8453 172.884 45.152C173.247 44.4587 173.732 43.9253 174.34 43.552C174.959 43.1787 175.647 42.992 176.404 42.992C177.065 42.992 177.641 43.1253 178.132 43.392C178.633 43.6587 179.033 43.9947 179.332 44.4V43.136H181.588V52H179.332V50.704C179.044 51.12 178.644 51.4667 178.132 51.744C177.631 52.0107 177.049 52.144 176.388 52.144C175.641 52.144 174.959 51.952 174.34 51.568C173.732 51.184 173.247 50.6453 172.884 49.952C172.532 49.248 172.356 48.4427 172.356 47.536ZM179.332 47.568C179.332 47.024 179.225 46.56 179.012 46.176C178.799 45.7813 178.511 45.4827 178.148 45.28C177.785 45.0667 177.396 44.96 176.98 44.96C176.564 44.96 176.18 45.0613 175.828 45.264C175.476 45.4667 175.188 45.7653 174.964 46.16C174.751 46.544 174.644 47.0027 174.644 47.536C174.644 48.0693 174.751 48.5387 174.964 48.944C175.188 49.3387 175.476 49.6427 175.828 49.856C176.191 50.0693 176.575 50.176 176.98 50.176C177.396 50.176 177.785 50.0747 178.148 49.872C178.511 49.6587 178.799 49.36 179.012 48.976C179.225 48.5813 179.332 48.112 179.332 47.568ZM186.016 44.512C186.304 44.0427 186.677 43.6747 187.136 43.408C187.605 43.1413 188.139 43.008 188.736 43.008V45.36H188.144C187.44 45.36 186.907 45.5253 186.544 45.856C186.192 46.1867 186.016 46.7627 186.016 47.584V52H183.776V43.136H186.016V44.512ZM198.725 43.136L193.237 56.192H190.853L192.773 51.776L189.221 43.136H191.733L194.021 49.328L196.341 43.136H198.725Z" fill="#404040"/>
<path d="M132.696 65.412C132.744 64.668 133.028 64.088 133.548 63.672C134.076 63.256 134.748 63.048 135.564 63.048C136.124 63.048 136.608 63.148 137.016 63.348C137.424 63.548 137.732 63.82 137.94 64.164C138.148 64.508 138.252 64.896 138.252 65.328C138.252 65.824 138.12 66.248 137.856 66.6C137.592 66.952 137.276 67.188 136.908 67.308V67.356C137.38 67.5 137.748 67.764 138.012 68.148C138.276 68.524 138.408 69.008 138.408 69.6C138.408 70.072 138.3 70.492 138.084 70.86C137.868 71.228 137.548 71.52 137.124 71.736C136.7 71.944 136.192 72.048 135.6 72.048C134.736 72.048 134.024 71.828 133.464 71.388C132.912 70.94 132.616 70.3 132.576 69.468H133.896C133.928 69.892 134.092 70.24 134.388 70.512C134.684 70.776 135.084 70.908 135.588 70.908C136.076 70.908 136.452 70.776 136.716 70.512C136.98 70.24 137.112 69.892 137.112 69.468C137.112 68.908 136.932 68.512 136.572 68.28C136.22 68.04 135.676 67.92 134.94 67.92H134.628V66.792H134.952C135.6 66.784 136.092 66.676 136.428 66.468C136.772 66.26 136.944 65.932 136.944 65.484C136.944 65.1 136.82 64.796 136.572 64.572C136.324 64.34 135.972 64.224 135.516 64.224C135.068 64.224 134.72 64.34 134.472 64.572C134.224 64.796 134.076 65.076 134.028 65.412H132.696ZM139.845 67.512C139.845 66.128 140.077 65.048 140.541 64.272C141.013 63.488 141.821 63.096 142.965 63.096C144.109 63.096 144.913 63.488 145.377 64.272C145.849 65.048 146.085 66.128 146.085 67.512C146.085 68.912 145.849 70.008 145.377 70.8C144.913 71.584 144.109 71.976 142.965 71.976C141.821 71.976 141.013 71.584 140.541 70.8C140.077 70.008 139.845 68.912 139.845 67.512ZM144.741 67.512C144.741 66.864 144.697 66.316 144.609 65.868C144.529 65.42 144.361 65.056 144.105 64.776C143.849 64.488 143.469 64.344 142.965 64.344C142.461 64.344 142.081 64.488 141.825 64.776C141.569 65.056 141.397 65.42 141.309 65.868C141.229 66.316 141.189 66.864 141.189 67.512C141.189 68.184 141.229 68.748 141.309 69.204C141.389 69.66 141.557 70.028 141.813 70.308C142.077 70.588 142.461 70.728 142.965 70.728C143.469 70.728 143.849 70.588 144.105 70.308C144.369 70.028 144.541 69.66 144.621 69.204C144.701 68.748 144.741 68.184 144.741 67.512ZM159.614 63.66V72H158.246V66.288L155.702 72H154.754L152.198 66.288V72H150.83V63.66H152.306L155.234 70.2L158.15 63.66H159.614ZM162.108 64.512C161.86 64.512 161.652 64.428 161.484 64.26C161.316 64.092 161.232 63.884 161.232 63.636C161.232 63.388 161.316 63.18 161.484 63.012C161.652 62.844 161.86 62.76 162.108 62.76C162.348 62.76 162.552 62.844 162.72 63.012C162.888 63.18 162.972 63.388 162.972 63.636C162.972 63.884 162.888 64.092 162.72 64.26C162.552 64.428 162.348 64.512 162.108 64.512ZM162.78 65.388V72H161.412V65.388H162.78ZM167.912 65.28C168.432 65.28 168.896 65.388 169.304 65.604C169.72 65.82 170.044 66.14 170.276 66.564C170.508 66.988 170.624 67.5 170.624 68.1V72H169.268V68.304C169.268 67.712 169.12 67.26 168.824 66.948C168.528 66.628 168.124 66.468 167.612 66.468C167.1 66.468 166.692 66.628 166.388 66.948C166.092 67.26 165.944 67.712 165.944 68.304V72H164.576V65.388H165.944V66.144C166.168 65.872 166.452 65.66 166.796 65.508C167.148 65.356 167.52 65.28 167.912 65.28Z" fill="#A5A4A4"/>
<g clip-path="url(#clip0_1_387)">
<path d="M97 45.1143C104.149 45.1143 109.965 50.9307 109.965 58.0796C109.965 65.229 104.149 71.0454 97 71.0454C89.8506 71.0454 84.0346 65.229 84.0346 58.0796C84.0346 50.9307 89.851 45.1143 97 45.1143ZM97 68.6956C102.853 68.6956 107.615 63.9333 107.615 58.0801C107.615 52.2269 102.853 47.4649 97 47.4649C91.1467 47.4649 86.3848 52.2269 86.3848 58.0801C86.3848 63.9336 91.1467 68.6956 97 68.6956Z" fill="#03A66B"/>
<path d="M93.3968 57.6881H96.5304V53.1444C96.5304 52.4953 97.0564 51.9692 97.7055 51.9692C98.3545 51.9692 98.8806 52.4953 98.8806 53.1444V58.8632C98.8806 59.5123 98.3545 60.0384 97.7055 60.0384H93.3967C92.7477 60.0384 92.2216 59.5123 92.2216 58.8632C92.2217 58.2142 92.7477 57.6881 93.3968 57.6881Z" fill="#03A66B"/>
<path d="M103.656 66.4899C104.139 66.0555 104.882 66.0951 105.316 66.5773L108.841 70.4943C109.276 70.9765 109.236 71.7196 108.754 72.1536C108.529 72.3561 108.248 72.4556 107.968 72.4556C107.646 72.4556 107.326 72.3244 107.094 72.0663L103.569 68.1492C103.134 67.667 103.174 66.9239 103.656 66.4899Z" fill="#03A66B"/>
<path d="M85.1583 70.4947L88.6836 66.5776C89.1169 66.0951 89.8603 66.0559 90.3429 66.4903C90.8255 66.9244 90.8643 67.6674 90.4302 68.1496L86.9049 72.0666C86.6734 72.3244 86.353 72.4556 86.0314 72.4556C85.7517 72.4556 85.4705 72.3561 85.2456 72.154C84.763 71.7199 84.7243 70.9768 85.1583 70.4947Z" fill="#03A66B"/>
<path d="M103.856 43.2571C106.191 40.9707 109.955 40.9742 112.246 43.2657C113.386 44.4051 114.008 45.9128 114 47.511C113.992 49.0899 113.366 50.5682 112.237 51.6736C112.008 51.8973 111.712 52.0089 111.415 52.0089C111.114 52.0089 110.813 51.8937 110.584 51.665L103.847 44.9277C103.625 44.7056 103.501 44.4043 103.503 44.0906C103.504 43.7768 103.631 43.4768 103.856 43.2571ZM111.286 49.0429C111.521 48.5685 111.647 48.0437 111.65 47.4984C111.655 46.5333 111.277 45.6198 110.584 44.9272C109.893 44.2367 108.98 43.8916 108.061 43.8916C107.524 43.8916 106.985 44.0094 106.488 44.2452L111.286 49.0429Z" fill="#03A66B"/>
<path d="M81.7546 43.265C84.046 40.974 87.8099 40.9701 90.1448 43.2564C90.3689 43.4762 90.4962 43.7762 90.4978 44.0899C90.4994 44.4037 90.3752 44.7053 90.1535 44.927L83.4162 51.6643C83.187 51.8938 82.8862 52.0086 82.5854 52.0086C82.2885 52.0086 81.9916 51.897 81.7632 51.6725C80.6343 50.5675 80.0084 49.0893 80.0001 47.5102C79.9919 45.9126 80.6151 44.4049 81.7546 43.265ZM82.7142 49.0426L87.5118 44.2451C86.1651 43.6058 84.511 43.8326 83.4161 44.9274C82.7236 45.6199 82.3452 46.533 82.3503 47.4986C82.3531 48.0434 82.4788 48.5687 82.7142 49.0426Z" fill="#03A66B"/>
</g>
<defs>
<filter id="filter0_d_1_387" x="0" y="0" width="280" height="194" filterUnits="userSpaceOnUse" color-interpolation-filters="sRGB">
<feFlood flood-opacity="0" result="BackgroundImageFix"/>
<feColorMatrix in="SourceAlpha" type="matrix" values="0 0 0 0 0 0 0 0 0 0 0 0 0 0 0 0 0 0 127 0" result="hardAlpha"/>
<feMorphology radius="10" operator="erode" in="SourceAlpha" result="effect1_dropShadow_1_387"/>
<feOffset dy="40"/>
<feGaussianBlur stdDeviation="35"/>
<feColorMatrix type="matrix" values="0 0 0 0 0 0 0 0 0 0 0 0 0 0 0 0 0 0 0.08 0"/>
<feBlend mode="normal" in2="BackgroundImageFix" result="effect1_dropShadow_1_387"/>
<feBlend mode="normal" in="SourceGraphic" in2="effect1_dropShadow_1_387" result="shape"/>
</filter>
<clipPath id="clip0_1_387">
<rect width="34" height="34" fill="white" transform="matrix(-1 0 0 1 114 40)"/>
</clipPath>
</defs>
</svg>
